<svg xmlns="http://www.w3.org/2000/svg" viewBox="0 0 320 200" role="img" aria-label="Editorial Journal template preview">
  <rect width="320" height="200" fill="#fbfcfe"/>
  <rect x="18" y="18" width="86" height="9" rx="4.5" fill="#7152d8"/>
  <rect x="18" y="42" width="145" height="8" rx="4" fill="#ccd3df"/>
  <rect x="18" y="66" width="135" height="16" rx="8" fill="#263249"/>
  <rect x="18" y="93" width="130" height="7" rx="3.5" fill="#cbd2df"/>
  <rect x="18" y="108" width="112" height="7" rx="3.5" fill="#cbd2df"/>
  <rect x="175" y="62" width="127" height="78" rx="8" fill="#e5e9f1"/>
  <circle cx="200" cy="85" r="9" fill="#d0d7e4"/>
  <path d="M178 132l36-37 25 21 23-26 36 42z" fill="#bfc8d8"/>
  <g fill="#e4e8f0"><rect x="18" y="150" width="86" height="32" rx="5"/><rect x="116" y="150" width="86" height="32" rx="5"/><rect x="214" y="150" width="86" height="32" rx="5"/></g>
</svg>
